<svg id="Layer_1" enable-background="new 0 0 511.998 511.998" height="512" viewBox="0 0 511.998 511.998" width="512" xmlns="http://www.w3.org/2000/svg" xmlns:xlink="http://www.w3.org/1999/xlink"><linearGradient id="SVGID_1_" gradientUnits="userSpaceOnUse" x1="255.999" x2="255.999" y1="0" y2="511.998"><stop offset="0" stop-color="#8df49b"/><stop offset="1" stop-color="#589cf9"/></linearGradient><path d="m444.993 292.88-47.734-36.882 47.734-36.882c14.421-11.142 22.691-27.977 22.691-46.188s-8.271-35.047-22.691-46.189l-144.29-111.486c-26.32-20.338-63.088-20.338-89.408 0l-144.29 111.486c-14.421 11.143-22.691 27.978-22.691 46.189s8.271 35.046 22.691 46.188l47.734 36.882-47.734 36.882c-14.421 11.142-22.691 27.978-22.691 46.189s8.271 35.046 22.691 46.188l144.29 111.486c13.162 10.17 28.931 15.254 44.704 15.253 15.77-.001 31.545-5.086 44.704-15.253l144.29-111.486c14.421-11.142 22.691-27.978 22.691-46.188 0-18.211-8.27-35.047-22.691-46.189zm-24.457 60.725-144.29 111.486c-11.922 9.211-28.574 9.211-40.494 0l-144.29-111.486c-4.543-3.51-7.148-8.809-7.148-14.536 0-5.728 2.605-11.026 7.148-14.537l55.988-43.259 63.845 49.33c13.161 10.168 28.933 15.253 44.704 15.253s31.543-5.084 44.704-15.253l20.43-15.786-32.711-25.275-12.176 9.408c-11.921 9.21-28.573 9.21-40.494 0l-144.29-111.485c-4.543-3.51-7.148-8.808-7.148-14.536 0-5.729 2.605-11.027 7.148-14.537l144.29-111.486c5.961-4.605 13.104-6.909 20.247-6.909s14.287 2.303 20.247 6.909l144.29 111.486c4.543 3.51 7.148 8.809 7.148 14.537s-2.605 11.026-7.148 14.536l-55.988 43.259-63.845-49.33c-26.32-20.338-63.088-20.338-89.408 0l-20.979 16.209 32.711 25.275 12.725-9.832c5.961-4.605 13.104-6.909 20.247-6.909s14.287 2.303 20.247 6.909l144.29 111.486c4.543 3.51 7.148 8.809 7.148 14.537s-2.605 11.026-7.148 14.536z" fill="url(#SVGID_1_)"/></svg>