<svg width="80" height="80" viewBox="0 0 24 24" fill="none" xmlns="http://www.w3.org/2000/svg">
<path fill-rule="evenodd" clip-rule="evenodd" d="M16.4334 20.5727C18.7824 20.5227 20.6554 18.5657 20.6034 16.2117V11.8697C20.6054 11.7647 20.6044 11.6717 20.6004 11.5787C20.4994 9.24069 18.6104 7.4967 16.1954 7.4967C16.1842 7.4967 16.174 7.49713 16.163 7.49759C16.1502 7.49812 16.1365 7.4987 16.1194 7.4987H7.88238C7.75638 7.4937 7.66538 7.4927 7.57438 7.4947C6.43138 7.5197 5.36938 7.9857 4.58138 8.8107C3.79138 9.6337 3.37138 10.7147 3.39638 11.8557V16.1957C3.39438 16.3037 3.39538 16.3977 3.39938 16.4897C3.50238 18.8427 5.48038 20.6827 7.85038 20.5697C10.5694 20.6157 13.3324 20.6157 16.1064 20.5687C16.2424 20.5747 16.3384 20.5757 16.4334 20.5727ZM16.1144 6.1037C19.2974 6.0777 21.8604 8.4407 21.9944 11.5177C21.9994 11.6387 22.0004 11.7627 21.9984 11.8857V16.1957C22.0664 19.3037 19.5824 21.8997 16.4604 21.9687C16.3324 21.9717 16.2114 21.9687 16.0894 21.9637C14.7114 21.9877 13.3254 21.9997 11.9464 21.9997C10.5754 21.9997 9.21138 21.9877 7.86938 21.9647C4.79038 22.0957 2.14238 19.6717 2.00538 16.5527C1.99938 16.4297 1.99938 16.3057 2.00138 16.1817V11.8697C1.96838 10.3727 2.52638 8.9387 3.57338 7.8457C4.61938 6.7517 6.02838 6.1317 7.54138 6.0997C7.66438 6.0957 7.79038 6.0967 7.91638 6.1047L11.8714 6.1037V5.8727C11.8624 5.1967 11.3004 4.6437 10.6164 4.6437H10.6064H9.61838H9.60038C8.53638 4.6437 7.66038 3.7767 7.64838 2.7057C7.64438 2.3197 7.95438 2.0047 8.33838 2.0007C8.68238 1.9847 9.04038 2.3057 9.04338 2.6907C9.04638 2.9987 9.29938 3.2477 9.60638 3.2477H9.61238H10.6014H10.6214C12.0614 3.2477 13.2474 4.4167 13.2664 5.8637V6.1037H16.1144ZM9.07968 11.5853C9.45241 11.5853 9.76044 11.8577 9.80919 12.211L9.81591 12.3092V13.3257H10.8498C11.2564 13.3257 11.586 13.6498 11.586 14.0496C11.586 14.416 11.309 14.7189 10.9497 14.7668L10.8498 14.7734H9.81591V15.79C9.81591 16.1897 9.48629 16.5138 9.07968 16.5138C8.70696 16.5138 8.39893 16.2415 8.35018 15.8882L8.34346 15.79V14.7734H7.30959C6.90299 14.7734 6.57337 14.4494 6.57337 14.0496C6.57337 13.6831 6.85034 13.3802 7.20969 13.3323L7.30959 13.3257H8.34346V12.3092C8.34346 11.9094 8.67308 11.5853 9.07968 11.5853ZM15.854 12.4152C15.854 12.0154 15.5244 11.6913 15.1178 11.6913H15.0189L14.919 11.698C14.5597 11.7459 14.2827 12.0487 14.2827 12.4152C14.2827 12.815 14.6123 13.1391 15.0189 13.1391H15.1178L15.2177 13.1325C15.577 13.0845 15.854 12.7817 15.854 12.4152ZM16.798 15.0131C17.2046 15.0131 17.5342 15.3372 17.5342 15.737C17.5342 16.1034 17.2573 16.4063 16.8979 16.4542L16.798 16.4608H16.6992C16.2926 16.4608 15.9629 16.1367 15.9629 15.737C15.9629 15.3705 16.2399 15.0676 16.5993 15.0197L16.6992 15.0131H16.798Z" fill="#200E32"/>
</svg>
