<svg width="146" height="27" viewBox="0 0 146 27" fill="none" xmlns="http://www.w3.org/2000/svg">
<path d="M31.0752 24.2921H33.8764V19.2292C34.3818 19.9312 35.4349 20.5055 36.8671 20.5055C39.7946 20.5055 41.7534 18.1655 41.7534 14.9959C41.7534 11.8901 40.0053 9.55008 36.9724 9.55008C35.4139 9.55008 34.2555 10.2521 33.7921 11.0604V9.78408H31.0752V24.2921ZM38.9943 15.0172C38.9943 16.8892 37.857 17.9741 36.4248 17.9741C34.9926 17.9741 33.8342 16.8679 33.8342 15.0172C33.8342 13.1664 34.9926 12.0815 36.4248 12.0815C37.857 12.0815 38.9943 13.1664 38.9943 15.0172ZM50.2896 12.5921V9.74154C50.079 9.72027 49.8684 9.69899 49.6367 9.69899C48.7522 9.69899 47.32 9.95427 46.6881 11.337V9.78408H43.9712V20.2503H46.7724V15.4639C46.7724 13.209 48.015 12.507 49.4472 12.507C49.6999 12.507 49.9737 12.5283 50.2896 12.5921ZM56.8118 9.46499C53.7158 9.46499 51.378 11.7837 51.378 15.0172C51.378 18.2294 53.7158 20.5694 56.8118 20.5694C59.9078 20.5694 62.2457 18.2294 62.2457 15.0172C62.2457 11.7837 59.9078 9.46499 56.8118 9.46499ZM56.8118 17.9954C55.4428 17.9954 54.1791 16.9743 54.1791 15.0172C54.1791 13.0388 55.4428 12.039 56.8118 12.039C58.1808 12.039 59.4445 13.0388 59.4445 15.0172C59.4445 16.9955 58.1808 17.9954 56.8118 17.9954ZM64.1198 6.3379C64.1198 7.29518 64.8991 8.06099 65.8468 8.06099C66.8157 8.06099 67.5739 7.29518 67.5739 6.3379C67.5739 5.35936 66.8157 4.57227 65.8468 4.57227C64.8991 4.57227 64.1198 5.35936 64.1198 6.3379ZM64.4568 9.78408V20.8884C64.4568 21.6543 64.1409 22.1223 63.2984 22.1223C62.8982 22.1223 62.6244 22.0584 62.4349 22.0159V24.3772C62.5823 24.441 63.1931 24.6112 64.0145 24.6112C66.0153 24.6112 67.258 23.1859 67.258 21.165V9.78408H64.4568ZM79.545 17.2508L77.2071 16.5488C76.8702 17.4848 76.1541 18.1443 74.8483 18.1443C73.4582 18.1443 72.2998 17.1444 72.2366 15.7617H79.6503C79.6503 15.7192 79.6924 15.2937 79.6924 14.8895C79.6924 11.5284 77.7758 9.46499 74.5745 9.46499C71.9207 9.46499 69.4776 11.6348 69.4776 14.9746C69.4776 18.5059 71.9839 20.5694 74.8272 20.5694C77.3756 20.5694 79.0184 19.059 79.545 17.2508ZM76.9333 13.8259H72.2998C72.363 12.8686 73.1633 11.7624 74.6166 11.7624C76.2173 11.7624 76.8912 12.7835 76.9333 13.8259ZM86.5527 12.0815C87.9427 12.0815 88.5956 12.975 88.8484 13.8472L91.3547 12.9963C90.9124 11.2306 89.3117 9.46499 86.4895 9.46499C83.4777 9.46499 81.1188 11.7837 81.1188 15.0172C81.1188 18.2294 83.5198 20.5694 86.5737 20.5694C89.3328 20.5694 90.9545 18.7824 91.4179 17.0381L88.9537 16.2084C88.722 17.0168 88.0059 17.9741 86.5737 17.9741C85.1416 17.9741 83.92 16.9104 83.92 15.0172C83.92 13.1239 85.1205 12.0815 86.5527 12.0815ZM96.9319 9.78408V6.65699H94.4046V8.12481C94.4046 9.06081 93.8991 9.78408 92.8039 9.78408H92.2774V12.2943H94.1518V17.1657C94.1518 19.1866 95.4155 20.3992 97.4374 20.3992C98.2588 20.3992 98.7643 20.2503 99.017 20.1439V17.8039C98.8696 17.8464 98.4905 17.889 98.1535 17.889C97.3532 17.889 96.9319 17.5912 96.9319 16.6764V12.2943H99.017V9.78408H96.9319ZM108.24 20.2503H110.915C110.873 19.8886 110.81 19.1654 110.81 18.357V9.78408H108.009V15.8681C108.009 17.0806 107.293 17.9315 106.05 17.9315C104.744 17.9315 104.154 16.9955 104.154 15.8255V9.78408H101.353V16.3999C101.353 18.6761 102.785 20.5268 105.292 20.5268C106.387 20.5268 107.587 20.1014 108.156 19.1228C108.156 19.5483 108.198 20.0375 108.24 20.2503ZM113.799 20.2503H116.516V18.9739C117.063 19.8674 118.159 20.5055 119.591 20.5055C122.539 20.5055 124.477 18.1443 124.477 14.9746C124.477 11.8688 122.729 9.50754 119.696 9.50754C118.159 9.50754 117.021 10.1883 116.558 10.9328V4.84881H113.799V20.2503ZM121.676 14.9959C121.676 16.9104 120.539 17.9741 119.106 17.9741C117.695 17.9741 116.516 16.8892 116.516 14.9959C116.516 13.0814 117.695 12.039 119.106 12.039C120.539 12.039 121.676 13.0814 121.676 14.9959ZM135.983 17.2508L133.645 16.5488C133.308 17.4848 132.592 18.1443 131.286 18.1443C129.896 18.1443 128.738 17.1444 128.675 15.7617H136.088C136.088 15.7192 136.131 15.2937 136.131 14.8895C136.131 11.5284 134.214 9.46499 131.013 9.46499C128.359 9.46499 125.916 11.6348 125.916 14.9746C125.916 18.5059 128.422 20.5694 131.265 20.5694C133.814 20.5694 135.457 19.059 135.983 17.2508ZM133.371 13.8259H128.738C128.801 12.8686 129.601 11.7624 131.055 11.7624C132.655 11.7624 133.329 12.7835 133.371 13.8259ZM137.942 18.4634C137.942 19.527 138.805 20.3992 139.858 20.3992C140.933 20.3992 141.796 19.527 141.796 18.4634C141.796 17.3997 140.933 16.5275 139.858 16.5275C138.805 16.5275 137.942 17.3997 137.942 18.4634Z" fill="#1B2431"/>
<path d="M19.4283 2.4541H4.84728C3.1696 2.4541 1.80957 3.82777 1.80957 5.52228V20.2496C1.80957 21.9441 3.1696 23.3177 4.84728 23.3177H19.4283C21.106 23.3177 22.466 21.9441 22.466 20.2496V5.52228C22.466 3.82777 21.106 2.4541 19.4283 2.4541Z" stroke="#532BDC" stroke-width="2"/>
<path d="M17.8086 5.52246H6.46777C5.57301 5.52246 4.84766 6.25509 4.84766 7.15882V14.5225C4.84766 15.4262 5.57301 16.1588 6.46777 16.1588H17.8086C18.7033 16.1588 19.4287 15.4262 19.4287 14.5225V7.15882C19.4287 6.25509 18.7033 5.52246 17.8086 5.52246Z" fill="#532BDC"/>
</svg>
