<svg width="25" height="25" viewBox="0 0 25 25" fill="none" xmlns="http://www.w3.org/2000/svg">
<g clip-path="url(#clip0)">
<path d="M3.63893 23.5063H1.86751L3.12012 22.2537C3.79551 21.5783 4.21727 20.6999 4.33066 19.7469C2.56824 18.5903 1.27948 17.0687 0.589606 15.3236C-0.0997787 13.5799 -0.18641 11.6603 0.339103 9.77245C0.96964 7.50716 2.44854 5.44244 4.50329 3.95854C6.73615 2.3461 9.51579 1.49377 12.5418 1.49377C16.3537 1.49377 19.5668 2.58897 21.8334 4.66089C23.8754 6.52751 25 9.0453 25 11.7505C25 13.0648 24.7324 14.3437 24.2046 15.5515C23.6585 16.8014 22.8587 17.9143 21.8276 18.8592C19.5579 20.9393 16.3469 22.0388 12.5417 22.0388C11.1292 22.0388 9.65516 21.8503 8.33915 21.5042C7.09348 22.7821 5.40551 23.5063 3.63893 23.5063ZM12.5418 2.96128C6.4742 2.96128 2.75109 6.5798 1.75285 10.166C0.809535 13.5549 2.20009 16.7572 5.47263 18.7321L5.83828 18.9527L5.82703 19.3796C5.80472 20.2246 5.60328 21.0385 5.24272 21.7742C6.12072 21.4771 6.91743 20.9385 7.54132 20.2015L7.85155 19.8349L8.31161 19.9725C9.60267 20.3587 11.105 20.5713 12.5418 20.5713C20.0932 20.5713 23.5325 15.9989 23.5325 11.7505C23.5325 9.46242 22.5775 7.32925 20.8433 5.74406C18.8517 3.92357 15.9811 2.96128 12.5418 2.96128Z" fill="black"/>
</g>
<defs>
<clipPath id="clip0">
<rect width="25" height="25" fill="white"/>
</clipPath>
</defs>
</svg>
