<svg width="80" height="80" viewBox="0 0 24 24" fill="none" xmlns="http://www.w3.org/2000/svg">
<path fill-rule="evenodd" clip-rule="evenodd" d="M11.9378 3.4375C9.38227 3.4375 7.32957 5.4902 7.32957 8.04575C7.32957 10.602 9.3821 12.6549 11.9378 12.6549C14.4935 12.6549 16.5461 10.602 16.5461 8.04575C16.5461 5.4902 14.4934 3.4375 11.9378 3.4375ZM11.9378 4.9375C13.6649 4.9375 15.0461 6.31863 15.0461 8.04575C15.0461 9.77367 13.6651 11.1549 11.9378 11.1549C10.2106 11.1549 8.82957 9.77367 8.82957 8.04575C8.82957 6.31863 10.2107 4.9375 11.9378 4.9375ZM6.29005 4.37937C6.70426 4.37937 7.04005 4.71516 7.04005 5.12937C7.04005 5.54359 6.70426 5.87937 6.29005 5.87937C5.10168 5.87937 4.13788 6.84275 4.13788 8.03062C4.13788 9.2185 5.10168 10.1819 6.29005 10.1819C6.70426 10.1819 7.04005 10.5177 7.04005 10.9319C7.04005 11.3461 6.70426 11.6819 6.29005 11.6819C4.2734 11.6819 2.63788 10.0471 2.63788 8.03062C2.63788 6.01418 4.2734 4.37937 6.29005 4.37937ZM21.2471 8.03062C21.2471 6.01418 19.6116 4.37937 17.5949 4.37937C17.1807 4.37937 16.8449 4.71516 16.8449 5.12937C16.8449 5.54359 17.1807 5.87937 17.5949 5.87937C18.7833 5.87937 19.7471 6.84275 19.7471 8.03062C19.7471 9.2185 18.7833 10.1819 17.5949 10.1819C17.1807 10.1819 16.8449 10.5177 16.8449 10.9319C16.8449 11.3461 17.1807 11.6819 17.5949 11.6819C19.6116 11.6819 21.2471 10.0471 21.2471 8.03062ZM20.4959 13.555C20.0157 13.4466 19.5025 13.3725 18.9807 13.3365C18.5675 13.308 18.2094 13.6199 18.1809 14.0331C18.1524 14.4464 18.4643 14.8045 18.8775 14.833C19.3241 14.8638 19.7617 14.9269 20.1871 15.0227C20.8488 15.1525 21.2802 15.3678 21.3873 15.5921C21.4678 15.7615 21.4678 15.9606 21.3865 16.132C21.2809 16.3541 20.8531 16.5682 20.2007 16.7024C19.795 16.7858 19.5338 17.1823 19.6172 17.5881C19.7006 17.9938 20.0972 18.2551 20.5029 18.1716C21.5811 17.9499 22.3709 17.5546 22.7414 16.7756C23.0161 16.1964 23.0161 15.5247 22.7415 14.947C22.3683 14.1651 21.5649 13.7643 20.4959 13.555ZM5.70407 14.0331C5.67557 13.6199 5.31747 13.308 4.90424 13.3365C4.38245 13.3725 3.86928 13.4466 3.36851 13.5593L3.16206 13.603C2.21444 13.8195 1.49149 14.2174 1.14448 14.9469C0.868622 15.5241 0.868622 16.197 1.14477 16.7762C1.51369 17.5544 2.30347 17.9498 3.38211 18.1716C3.78784 18.2551 4.18437 17.9938 4.2678 17.5881C4.35124 17.1823 4.08996 16.7858 3.68424 16.7024C3.03215 16.5683 2.60478 16.3543 2.49945 16.1321C2.4174 15.96 2.4174 15.7621 2.49844 15.5925C2.60543 15.3676 3.03639 15.1525 3.67727 15.027L4.0105 14.9588C4.34268 14.8974 4.67255 14.8561 5.00744 14.833C5.42068 14.8045 5.73256 14.4464 5.70407 14.0331ZM5.16715 17.1845C5.16715 14.7986 7.63509 13.9595 11.9378 13.9595L12.2427 13.961C16.3656 13.9997 18.7085 14.8407 18.7085 17.1671C18.7085 19.4388 16.4689 20.3087 12.5398 20.3863L11.9378 20.3921C7.62523 20.3921 5.16715 19.5678 5.16715 17.1845ZM17.2085 17.1671C17.2085 16.0566 15.4279 15.4595 11.9378 15.4595C8.45111 15.4595 6.66715 16.0661 6.66715 17.1845C6.66715 18.2952 8.44713 18.8921 11.9378 18.8921C15.4235 18.8921 17.2085 18.2851 17.2085 17.1671Z" fill="#1F1F63"/>
</svg>
