<svg width="80" height="80" viewBox="0 0 24 24" fill="none" xmlns="http://www.w3.org/2000/svg">
<path fill-rule="evenodd" clip-rule="evenodd" d="M21.7046 4.59142C22.0162 3.18576 20.709 1.91736 19.2937 2.32696L3.63713 6.88269L3.48604 6.93292C2.01645 7.48599 1.79097 9.53274 3.16744 10.3801L9.64297 14.366L13.5387 20.82L13.6263 20.9533C14.5395 22.2328 16.5618 21.9229 17.0228 20.3719L21.668 4.73239L21.7046 4.59142ZM19.7846 3.75311C20.0734 3.7221 20.3202 4.003 20.2303 4.30461L15.585 19.9446L15.5545 20.0213C15.4093 20.3068 14.9985 20.3359 14.823 20.045L11.135 13.936L16.3875 8.64963L16.4598 8.56527C16.6767 8.27093 16.6511 7.85435 16.3839 7.58897L16.2996 7.51664C16.0052 7.29976 15.5887 7.32535 15.3233 7.5925L10.078 12.872L3.95374 9.10271L3.88762 9.05306C3.64979 8.8364 3.72984 8.41769 4.05573 8.3231L19.7117 3.76752L19.7846 3.75311Z" fill="#200E32"/>
</svg>
