<?xml version="1.0" encoding="utf-8"?>
<!-- Generator: Adobe Illustrator 25.0.0, SVG Export Plug-In . SVG Version: 6.00 Build 0)  -->
<svg version="1.1" id="Layer_1" xmlns="http://www.w3.org/2000/svg" xmlns:xlink="http://www.w3.org/1999/xlink" x="0px" y="0px"
	 viewBox="0 0 605 195" style="enable-background:new 0 0 605 195;" xml:space="preserve">
<style type="text/css">
	.st0{fill:#FFFFFF;}
	.st1{stroke:#000000;stroke-width:4;stroke-miterlimit:10;}
	.st2{fill:#4F46E8;}
	.st3{fill:none;stroke:#000000;stroke-width:4;stroke-miterlimit:10;}
	.st4{fill:#F2AAD0;}
	.st5{fill:#1F1F63;}
	.st6{font-family:'PoppinsVN-600';}
	.st7{font-size:75px;}
</style>
<g>
	<path class="st4" d="M160.2,95.3h-32.5c-1.1,0-2-0.6-2.6-1.5l-16.3-28.3c-0.6-1,0.1-2.2,1.3-2.2h32.5c1.1,0,2,0.6,2.6,1.5
		l16.3,28.3C162,94.1,161.3,95.3,160.2,95.3z"/>
	<path class="st2" d="M159,101.9l-16.3,28.3c-0.5,0.9-1.5,1.5-2.6,1.5h-33.5c-1.1,0-2-0.6-2.6-1.5l-16.8-29c-0.5-0.9-0.5-2,0-3
		l16.4-28.3c0.6-1,2-1,2.6,0l16.6,28.3c0.5,0.9,1.5,1.5,2.5,1.5h32.5C158.8,99.7,159.5,100.9,159,101.9z"/>
</g>
<text transform="matrix(1 0 0 1 177.247 126.0621)" class="st5 st6 st7">Vietcode</text>
</svg>
