<svg width="80" height="80" viewBox="0 0 24 24" fill="none" xmlns="http://www.w3.org/2000/svg">
<g id="Iconly/Light/Work">
<g id="Work">
<path id="Stroke 1" d="M11.9951 16.6768V14.1398" stroke="#130F26" stroke-width="1.5" stroke-linecap="round" stroke-linejoin="round"/>
<g id="Group 8">
<path id="Stroke 2" fill-rule="evenodd" clip-rule="evenodd" d="M18.1899 5.3302C19.8799 5.3302 21.2399 6.7002 21.2399 8.3902V11.8302C18.7799 13.2702 15.5299 14.1402 11.9899 14.1402C8.44988 14.1402 5.20988 13.2702 2.74988 11.8302V8.3802C2.74988 6.6902 4.11988 5.3302 5.80988 5.3302H18.1899Z" stroke="#130F26" stroke-width="1.5" stroke-linecap="round" stroke-linejoin="round"/>
<path id="Stroke 4" d="M15.4951 5.32582V4.95982C15.4951 3.73982 14.5051 2.74982 13.2851 2.74982H10.7051C9.48512 2.74982 8.49512 3.73982 8.49512 4.95982V5.32582" stroke="#130F26" stroke-width="1.5" stroke-linecap="round" stroke-linejoin="round"/>
<path id="Stroke 6" d="M2.77441 15.483L2.96341 17.992C3.09141 19.683 4.50041 20.99 6.19541 20.99H17.7944C19.4894 20.99 20.8984 19.683 21.0264 17.992L21.2154 15.483" stroke="#130F26" stroke-width="1.5" stroke-linecap="round" stroke-linejoin="round"/>
</g>
</g>
</g>
</svg>
